<?xml version="1.0" standalone="no"?>
<!DOCTYPE svg PUBLIC "-//W3C//DTD SVG 20010904//EN"
 "http://www.w3.org/TR/2001/REC-SVG-20010904/DTD/svg10.dtd">
<svg version="1.0" xmlns="http://www.w3.org/2000/svg"
 width="709.000000pt" height="709.000000pt" viewBox="0 0 709.000000 709.000000"
 preserveAspectRatio="xMidYMid meet">
<metadata>
Created by potrace 1.11, written by Peter Selinger 2001-2013
</metadata>
<g transform="translate(0.000000,709.000000) scale(0.100000,-0.100000)"
fill="#000000" stroke="none">
<path d="M3280 6834 c-241 -29 -315 -40 -430 -65 -369 -80 -688 -207 -1019
-406 -111 -67 -257 -167 -316 -215 -250 -208 -428 -385 -565 -564 -171 -224
-296 -430 -408 -671 -45 -98 -132 -328 -156 -416 -8 -28 -22 -77 -30 -107 -26
-90 -64 -286 -83 -420 -13 -95 -17 -196 -18 -420 0 -317 10 -426 62 -675 22
-108 33 -151 78 -305 24 -83 92 -264 135 -360 175 -386 391 -698 692 -1000
504 -505 1173 -834 1893 -930 442 -59 968 -14 1398 119 220 68 545 212 712
316 441 272 800 615 1059 1010 43 66 86 131 95 145 10 14 54 97 98 185 217
430 328 848 353 1328 22 429 -37 847 -177 1252 -272 784 -848 1449 -1587 1834
-173 91 -397 183 -546 226 -146 43 -195 55 -285 75 -227 49 -357 62 -645 65
-151 2 -291 1 -310 -1z m625 -389 c392 -51 749 -169 1080 -358 394 -226 739
-548 979 -912 43 -66 86 -131 96 -145 19 -29 144 -279 179 -360 76 -176 160
-481 192 -699 26 -176 36 -530 20 -679 -26 -236 -66 -434 -123 -620 -27 -88
-46 -84 -111 28 -100 172 -132 227 -174 297 -24 40 -43 75 -43 78 0 2 -16 29
-35 60 -20 30 -38 63 -42 73 -3 9 -14 28 -23 42 -10 14 -58 95 -107 180 -157
272 -529 913 -562 968 -17 29 -31 55 -31 57 0 2 -18 34 -41 72 -57 95 -52 87
-121 206 -35 59 -72 123 -82 142 -11 19 -22 32 -26 30 -4 -3 -34 -51 -66 -107
-56 -100 -135 -237 -154 -268 -5 -8 -23 -39 -40 -67 -16 -29 -44 -77 -60 -105
-17 -29 -35 -60 -40 -68 -21 -32 -117 -201 -160 -278 -25 -45 -49 -80 -55 -79
-10 4 -20 19 -143 232 -41 72 -106 184 -145 250 -181 312 -211 363 -234 405
-14 25 -29 50 -33 55 -4 6 -18 30 -32 55 -14 25 -51 90 -83 145 -32 55 -75
129 -95 165 -21 36 -43 65 -49 65 -6 0 -63 -90 -127 -200 -421 -724 -562 -968
-594 -1025 -20 -36 -49 -85 -64 -109 -32 -50 -28 -52 -90 56 -18 32 -87 150
-153 263 -66 113 -164 282 -218 375 -54 94 -108 187 -120 209 l-23 38 -15 -23
c-32 -54 -81 -136 -100 -169 -10 -19 -75 -132 -144 -250 -69 -118 -159 -273
-200 -345 -42 -71 -93 -159 -113 -195 -21 -36 -49 -83 -62 -106 -27 -47 -135
-232 -148 -254 -5 -8 -51 -87 -101 -175 -401 -696 -471 -815 -480 -815 -3 0
-23 55 -43 123 -249 833 -118 1732 357 2451 121 183 205 284 377 456 129 130
188 182 287 258 388 294 833 486 1308 563 250 40 587 46 830 14z m-330 -1930
c19 -31 35 -58 35 -60 0 -3 17 -34 39 -68 21 -34 109 -186 196 -337 180 -313
219 -380 251 -432 43 -68 42 -74 -39 -214 -108 -187 -203 -351 -287 -494 -40
-69 -82 -141 -93 -160 -71 -127 -129 -220 -137 -220 -4 0 -28 35 -52 78 -25
42 -86 149 -137 237 -52 88 -136 234 -189 325 -52 91 -113 194 -134 230 -80
135 -85 148 -67 178 9 15 62 106 118 202 56 96 106 182 111 190 5 8 33 56 62
105 28 50 68 117 87 151 20 33 72 124 116 202 44 78 81 142 82 142 1 0 18 -25
38 -55z m-1345 -485 c40 -69 80 -138 90 -155 9 -16 43 -75 75 -130 69 -118 91
-157 217 -375 52 -91 121 -210 153 -265 32 -55 73 -126 92 -157 76 -131 103
-179 170 -293 97 -167 250 -432 278 -480 12 -22 45 -79 74 -127 l52 -88 112 0
c62 0 119 5 127 10 8 5 12 10 7 10 -10 0 6 31 151 280 69 118 158 274 200 345
41 72 78 135 82 140 4 6 21 35 37 65 25 44 85 149 163 280 11 18 161 279 355
615 185 321 241 416 257 439 13 17 21 7 88 -110 136 -237 351 -609 360 -624 5
-8 37 -62 70 -120 34 -58 65 -112 70 -120 13 -20 79 -136 180 -310 46 -80 129
-224 185 -320 56 -96 114 -197 130 -225 54 -92 75 -130 86 -152 10 -18 5 -31
-26 -85 -163 -273 -365 -519 -579 -706 -54 -48 -104 -91 -110 -97 -22 -20
-163 -122 -216 -156 -145 -94 -184 -117 -310 -180 -321 -160 -602 -244 -970
-290 -151 -18 -206 -21 -405 -16 -327 8 -581 52 -881 152 -151 51 -442 185
-534 245 -14 9 -79 52 -145 96 -159 105 -306 227 -441 365 -201 206 -293 323
-437 557 -50 81 -56 95 -46 115 6 12 34 60 61 107 27 47 53 92 58 100 5 8 31
53 58 100 27 47 84 144 125 215 41 72 148 256 237 410 163 281 363 627 380
655 45 74 90 153 90 156 0 12 150 257 154 252 2 -1 36 -59 76 -128z m4070
-1440 c0 -5 -4 -10 -10 -10 -5 0 -10 5 -10 10 0 6 5 10 10 10 6 0 10 -4 10
-10z"/>
</g>
</svg>
